<svg xmlns="http://www.w3.org/2000/svg" xml:space="preserve" width="2000" height="1500" data-id="lg_8mfJh5DklDBDEapqDJ" data-version="1"><path stroke="transparent" d="M0 0h2000v1500H0z"/><g data-padding="20"><path fill="#fff" stroke="null" stroke-width="2.88" d="M279.51 697.066q0-10.8 4.148-20.276 4.118-9.475 11.203-16.56 7.113-7.113 16.589-11.232 9.475-4.147 20.275-4.147h79.862V679.7h-79.862q-3.658 0-6.797 1.325-3.168 1.354-5.53 3.715t-3.715 5.53q-1.325 3.139-1.325 6.797 0 3.628 1.325 6.854 1.354 3.226 3.715 5.587t5.53 3.715q3.14 1.325 6.797 1.325h34.819q10.829 0 20.362 4.061 9.504 4.06 16.617 11.174 7.114 7.085 11.175 16.618t4.06 20.333q0 10.829-4.06 20.275-4.061 9.475-11.175 16.589-7.113 7.085-16.617 11.232-9.533 4.118-20.362 4.118h-77.328V784.1h77.328q3.658 0 6.826-1.325 3.139-1.353 5.5-3.715 2.39-2.361 3.716-5.53 1.324-3.139 1.324-6.796 0-3.629-1.324-6.797-1.325-3.14-3.716-5.5-2.361-2.391-5.5-3.716-3.168-1.325-6.826-1.325h-34.82q-10.8 0-20.274-4.147-9.476-4.118-16.59-11.232-7.084-7.085-11.202-16.618-4.148-9.532-4.148-20.332ZM471.434 802.3v16.646h-33.38V637.22h33.38v114.595l49.42-62.64h38.132l-43.114 54.144 43.114 75.63h-38.132l-26.352-47.233ZM611.17 653.606q0 4.608-1.757 8.612t-4.81 6.998q-3.023 2.966-7.084 4.723t-8.698 1.757q-4.608 0-8.668-1.757t-7.028-4.723q-2.995-2.995-4.752-6.998t-1.756-8.612q0-4.492 1.756-8.553 1.757-4.09 4.752-7.056 2.967-2.967 7.028-4.723t8.668-1.757q4.637 0 8.698 1.757t7.085 4.723q3.053 2.966 4.81 7.056 1.756 4.06 1.756 8.553Zm-5.702 35.31v130.031h-33.38V688.915Zm58.637-51.697v181.728h-33.38V637.22Zm58.636 0v181.728h-33.379V637.22Zm18.576 59.847q0-10.8 4.119-20.276t11.232-16.56q7.113-7.113 16.56-11.232 9.475-4.147 20.275-4.147h79.891V679.7h-79.891q-3.629 0-6.797 1.325-3.139 1.354-5.53 3.715-2.361 2.362-3.686 5.53-1.353 3.139-1.353 6.797 0 3.628 1.353 6.854 1.325 3.226 3.687 5.587 2.39 2.362 5.53 3.715 3.167 1.325 6.796 1.325h34.848q10.8 0 20.333 4.061t16.617 11.174q7.114 7.085 11.175 16.618t4.06 20.333q0 10.829-4.06 20.275-4.061 9.475-11.175 16.589-7.084 7.085-16.617 11.232-9.533 4.118-20.333 4.118h-77.328V784.1h77.328q3.629 0 6.797-1.325 3.168-1.353 5.53-3.715t3.686-5.53q1.353-3.139 1.353-6.796 0-3.629-1.353-6.797-1.325-3.14-3.687-5.5-2.361-2.391-5.53-3.716t-6.796-1.325h-34.848q-10.8 0-20.275-4.147-9.447-4.118-16.56-11.232-7.114-7.085-11.232-16.618t-4.119-20.332Zm191.664 47.577v74.304h-33.12V637.22h33.12v57.427q5.962-4.492 12.27-6.393 6.306-1.872 12.873-1.872 12.01 0 22.579 4.55t18.403 12.5q7.805 7.948 12.384 18.575 4.55 10.628 4.55 22.637v74.304h-33.407v-74.304h.259q0-5.097-1.959-9.648-1.93-4.55-5.328-7.949t-7.89-5.328q-4.494-1.958-9.591-1.958-5.213 0-9.821 1.958-4.637 1.93-8.035 5.328t-5.328 7.95q-1.959 4.55-1.959 9.647Zm232.503-55.469v129.773h-8.035l-12.874-17.856q-4.723 4.263-9.994 7.949-5.299 3.715-11.116 6.451t-11.952 4.291q-6.135 1.584-12.442 1.584-13.738 0-25.805-4.608t-21.11-13.42q-9.043-8.784-14.285-21.543-5.213-12.758-5.213-29.001 0-15.178 5.213-27.879 5.242-12.672 14.285-21.773t21.11-14.14 25.805-5.04q6.307 0 12.5 1.555 6.191 1.584 12.009 4.377 5.846 2.794 11.117 6.567 5.27 3.744 9.878 8.121l12.874-15.408Zm-33.408 63.62q0-6.797-2.592-13.19-2.621-6.366-7.114-11.29-4.493-4.896-10.483-7.892-6.02-2.966-12.816-2.966t-12.816 2.304-10.426 6.797q-4.435 4.493-6.998 11.117-2.534 6.624-2.534 15.12t2.534 15.09q2.563 6.625 6.998 11.118 4.407 4.492 10.426 6.796t12.816 2.304 12.816-2.966q5.99-2.966 10.483-7.891t7.114-11.29q2.592-6.365 2.592-13.161Zm91.785-5.472v71.625h-33.148V688.915h8.006l10.944 15.437q8.006-7.286 18.202-11.232t21.139-3.946h29.232v33.005h-29.232q-5.242 0-9.85 1.959-4.608 1.93-8.006 5.328t-5.357 8.035q-1.93 4.608-1.93 9.82Zm103.19 62.87v58.291h-33.378V688.915h8.006l13.22 15.667q4.492-4.233 9.849-8.006 5.328-3.773 11.088-6.48 5.789-2.736 11.98-4.32t12.5-1.584q13.709 0 25.805 4.925 12.067 4.925 21.11 13.881 9.043 8.986 14.256 21.687 5.242 12.672 5.242 28.109 0 16.012-5.242 28.828-5.213 12.788-14.256 21.716t-21.11 13.65q-12.096 4.753-25.805 4.753-4.378 0-8.698-.98-4.291-.979-8.496-2.591-4.176-1.642-8.237-3.716t-7.833-4.262Zm66.414-57.398q0-8.266-2.621-14.832-2.621-6.538-7.114-11.088t-10.54-6.999q-6.077-2.419-12.874-2.419t-12.816 2.42q-6.02 2.447-10.483 6.998-4.493 4.55-7.114 11.088-2.62 6.566-2.62 14.832 0 7.89 2.62 14.428 2.62 6.567 7.114 11.175 4.464 4.608 10.483 7.171 6.019 2.534 12.816 2.534t12.873-2.534q6.048-2.563 10.541-7.171t7.114-11.175q2.62-6.537 2.62-14.428Zm157.45-3.399h69.666v-34.848q0-7.171-2.736-13.536t-7.459-11.117q-4.723-4.723-11.117-7.459-6.364-2.736-13.536-2.736-7.142 0-13.536 2.736-6.364 2.736-11.088 7.46-4.752 4.751-7.459 11.116-2.736 6.365-2.736 13.536Zm104.514-34.848v104.4h-34.848V784.1h-69.667v34.848h-34.733v-104.4q0-14.457 5.472-27.13 5.444-12.7 14.861-22.147 9.418-9.475 22.09-14.947 12.7-5.472 27.13-5.472 14.457 0 27.158 5.472 12.672 5.472 22.147 14.947 9.475 9.447 14.918 22.148 5.472 12.672 5.472 27.13Zm65.06-69.696v174.096h-34.82V644.851Z" font-family="Righteous" font-size="86.327"/><path fill="transparent" stroke="transparent" stroke-width="3" d="M250 627h1500v246H250z"/></g></svg>